<?xml version="1.0" encoding="utf-8"?>
<!-- Generator: Adobe Illustrator 16.0.3, SVG Export Plug-In . SVG Version: 6.00 Build 0)  -->
<!DOCTYPE svg PUBLIC "-//W3C//DTD SVG 1.1//EN" "http://www.w3.org/Graphics/SVG/1.1/DTD/svg11.dtd">
<svg version="1.1" id="Layer_1" xmlns="http://www.w3.org/2000/svg" xmlns:xlink="http://www.w3.org/1999/xlink" x="0px" y="0px"
	 width="24px" height="24px" viewBox="0 0 24 24" enable-background="new 0 0 24 24" xml:space="preserve">
<g>
	<path fill="#343433" d="M12.274,14.213c0-1.388-0.66-2.413-2.023-2.798c0.995-0.474,1.514-1.191,1.514-2.307
		c0-2.202-1.646-2.739-3.546-2.739H2.993v11.053h5.373C10.381,17.422,12.274,16.458,12.274,14.213z M5.429,8.256h2.287
		c0.88,0,1.67,0.247,1.67,1.263c0,0.939-0.615,1.316-1.485,1.316H5.429V8.256z M5.428,15.544V12.5h2.657
		c1.073,0,1.752,0.445,1.752,1.578c0,1.117-0.811,1.466-1.803,1.466H5.428z"/>
	<path fill="#343433" d="M17.104,17.631c1.917,0,3.159-0.862,3.755-2.692h-1.945c-0.209,0.685-1.073,1.044-1.742,1.044
		c-1.292,0-1.971-0.753-1.971-2.036h5.79c0.184-2.566-1.246-4.753-3.889-4.753c-2.446,0-4.106,1.834-4.106,4.235
		C12.996,15.921,14.569,17.631,17.104,17.631z M17.034,10.855c1.107,0,1.664,0.647,1.757,1.708h-3.586
		C15.276,11.512,15.977,10.855,17.034,10.855L17.034,10.855z"/>
	<path fill="#343433" d="M14.755,6.95h4.494v1.088h-4.494V6.95z"/>
</g>
</svg>
