<?xml version="1.0" encoding="utf-8"?>
<!-- Generator: Adobe Illustrator 16.0.3, SVG Export Plug-In . SVG Version: 6.00 Build 0)  -->
<!DOCTYPE svg PUBLIC "-//W3C//DTD SVG 1.1//EN" "http://www.w3.org/Graphics/SVG/1.1/DTD/svg11.dtd">
<svg version="1.1" id="Layer_1" xmlns="http://www.w3.org/2000/svg" xmlns:xlink="http://www.w3.org/1999/xlink" x="0px" y="0px"
	 width="24px" height="24px" viewBox="0 0 24 24" enable-background="new 0 0 24 24" xml:space="preserve">
<g>
	<circle fill="#343433" cx="7.28" cy="10.542" r="0.577"/>
	<circle fill="#343433" cx="12.978" cy="10.526" r="0.621"/>
	<path fill="#343433" d="M18.134,4.232H5.866c-1.237,0-2.24,1.003-2.24,2.241v7.281c0,1.237,1.003,2.24,2.24,2.24h4.333l1.474,3.473
		c0,0,0.102,0.301,0.347,0.301l0,0c0.246,0,0.348-0.301,0.348-0.301l1.474-3.473h4.293c1.237,0,2.24-1.003,2.24-2.24V6.473
		C20.374,5.235,19.371,4.232,18.134,4.232z M8.888,10.668C8.881,12,7.504,12.038,7.504,12.038c-0.531,0-0.832-0.353-0.832-0.353
		v0.24H5.67V7.792c-0.005,0-0.005-0.001,0-0.002v0.002c0.062,0.01,1.002-0.002,1.002-0.002V9.37
		c0.235-0.402,0.917-0.396,0.917-0.396C9.073,9.113,8.888,10.668,8.888,10.668z M10.652,9.102v2.83H9.671V9.13
		c0-0.381-0.473-0.487-0.473-0.487V7.655C10.765,7.719,10.652,9.102,10.652,9.102z M12.978,12.04c-0.908,0-1.645-0.678-1.645-1.514
		c0-0.836,0.736-1.514,1.645-1.514c0.907,0,1.644,0.678,1.644,1.514C14.621,11.362,13.885,12.04,12.978,12.04z M18.352,12.04
		c0,0,0.014,1.438-1.447,1.438H16.46v-0.932h0.268c0,0,0.614,0.056,0.607-0.889c0,0-0.12,0.383-0.981,0.383
		c0,0-1.221-0.088-1.221-1.279v-0.452c0,0,0.028-1.235,1.369-1.334c0,0,0.529-0.056,0.854,0.381V9.052h0.995V12.04z"/>
	<circle fill="#343433" cx="16.791" cy="10.525" r="0.607"/>
</g>
</svg>
