<?xml version="1.0" encoding="utf-8"?>
<!-- Generator: Adobe Illustrator 16.0.3, SVG Export Plug-In . SVG Version: 6.00 Build 0)  -->
<!DOCTYPE svg PUBLIC "-//W3C//DTD SVG 1.1//EN" "http://www.w3.org/Graphics/SVG/1.1/DTD/svg11.dtd">
<svg version="1.1" id="Layer_1" xmlns="http://www.w3.org/2000/svg" xmlns:xlink="http://www.w3.org/1999/xlink" x="0px" y="0px"
	 width="24px" height="24px" viewBox="0 0 24 24" enable-background="new 0 0 24 24" xml:space="preserve">
<g>
	<path fill="#343433" d="M15.897,3.303H8.103c-2.646,0-4.799,2.153-4.799,4.8v7.793c0,2.646,2.152,4.801,4.799,4.801h7.795
		c2.646,0,4.799-2.154,4.799-4.801V8.103C20.696,5.457,18.544,3.303,15.897,3.303z M19.153,15.896c0,1.797-1.461,3.258-3.256,3.258
		H8.103c-1.795,0-3.256-1.461-3.256-3.258V8.103c0-1.796,1.461-3.257,3.256-3.257h7.795c1.795,0,3.256,1.461,3.256,3.257V15.896
		L19.153,15.896z"/>
	<path fill="#343433" d="M11.999,7.518c-2.471,0-4.48,2.011-4.48,4.482c0,2.47,2.01,4.482,4.48,4.482
		c2.473,0,4.482-2.012,4.482-4.482C16.481,9.529,14.472,7.518,11.999,7.518z M11.999,14.939c-1.619,0-2.938-1.318-2.938-2.939
		c0-1.621,1.318-2.939,2.938-2.939c1.621,0,2.939,1.318,2.939,2.939C14.938,13.621,13.62,14.939,11.999,14.939z"/>
	<path fill="#343433" d="M16.669,6.209c-0.297,0-0.588,0.121-0.799,0.332c-0.211,0.209-0.332,0.502-0.332,0.8
		s0.121,0.59,0.332,0.801c0.211,0.21,0.502,0.331,0.799,0.331c0.299,0,0.59-0.121,0.801-0.331c0.211-0.211,0.332-0.503,0.332-0.801
		s-0.121-0.591-0.332-0.8C17.261,6.331,16.968,6.209,16.669,6.209z"/>
</g>
</svg>
