<?xml version="1.0" encoding="utf-8"?>
<!-- Generator: Adobe Illustrator 16.0.3, SVG Export Plug-In . SVG Version: 6.00 Build 0)  -->
<!DOCTYPE svg PUBLIC "-//W3C//DTD SVG 1.1//EN" "http://www.w3.org/Graphics/SVG/1.1/DTD/svg11.dtd">
<svg version="1.1" id="Layer_1" xmlns="http://www.w3.org/2000/svg" xmlns:xlink="http://www.w3.org/1999/xlink" x="0px" y="0px"
	 width="438px" height="72px" viewBox="0 0 438 72" enable-background="new 0 0 438 72" xml:space="preserve">
<g>
	<g>
		<g>
			<path fill="#343433" d="M204.543,12.498v40.42c0,1.87-0.152,3.615-0.455,5.232c-0.303,1.618-0.886,3.147-1.744,4.589
				c-0.861,1.44-2.15,2.616-3.868,3.526c-1.719,0.909-5.953,1.364-8.683,1.364c-3.338,0-6.075-0.755-8.114-1.835l1.897-4.915
				c0.741,0.281,2.273,0.789,3.156,0.935c0.992,0.164,1.822,0.202,2.985,0.202c1.214,0,4.22-0.251,5.004-0.757
				c0.784-0.505,1.39-1.176,1.82-2.01c0.43-0.834,0.707-1.731,0.835-2.692c0.125-0.959,0.188-1.997,0.188-3.108V12.498H204.543z"/>
			<path fill="#343433" d="M254.366,45.259c0,4.247-0.582,7.849-1.745,10.807c-1.163,2.957-2.691,5.27-4.588,6.939
				c-1.896,1.667-3.981,2.856-6.256,3.563c-2.275,0.707-4.651,1.062-7.129,1.062c-2.427,0-4.791-0.354-7.09-1.062
				c-2.302-0.707-4.399-1.896-6.296-3.563c-1.896-1.67-3.424-3.982-4.587-6.939c-1.165-2.958-1.744-6.56-1.744-10.807V12.498h6.976
				v34.581c0,1.922,0.228,3.768,0.683,5.536c0.456,1.771,1.176,3.363,2.162,4.778c0.985,1.415,2.313,2.54,3.98,3.375
				c1.668,0.833,3.64,1.249,5.915,1.249s4.248-0.416,5.915-1.249c1.669-0.835,2.996-1.972,3.981-3.413
				c0.986-1.441,1.706-3.033,2.161-4.778c0.455-1.743,0.683-3.576,0.683-5.498V12.498h6.978V45.259z"/>
			<path fill="#343433" d="M299.336,57.62c-0.304-0.86-0.848-2.073-1.631-3.64c-0.784-1.568-1.453-2.831-2.01-3.792l-21.688-37.691
				h-9.253v53.995h6.977V20.916c0.305,0.86,0.847,2.074,1.631,3.639c0.783,1.568,1.453,2.832,2.009,3.792l21.614,38.146h9.328
				V12.498h-6.978V50.87V57.62z"/>
			<path fill="#FF8000" d="M363.849,51.695c-2.356,3.261-4.553,5.86-6.587,7.797c-2.035,1.936-4.471,3.645-7.305,5.125
				c-3.68,1.922-7.224,2.884-10.633,2.888c-3.411,0.005-6.538-0.745-9.382-2.25c-2.845-1.503-5.388-3.518-7.635-6.039
				c-2.247-2.519-4.191-5.352-5.835-8.499c-2.292-4.389-3.685-8.481-4.175-12.287c-0.492-3.803-0.271-7.189,0.661-10.158
				c0.93-2.967,2.385-5.531,4.357-7.69c1.976-2.157,4.27-3.92,6.886-5.286c2.88-1.503,5.566-2.384,8.054-2.641
				c2.488-0.255,4.677-0.087,6.565,0.506s3.427,1.298,4.615,2.115c1.19,0.818,2.361,1.743,3.521,2.772l0.136,0.099l-5.185,4.652
				c-1.733-1.914-3.959-3.206-6.676-3.874c-2.717-0.667-5.538-0.239-8.463,1.289c-2.57,1.342-4.476,3.07-5.712,5.183
				c-1.238,2.112-1.901,4.405-1.992,6.877c-0.092,2.473,0.222,4.99,0.938,7.546c0.715,2.56,1.71,5.059,2.981,7.493
				c1.135,2.174,2.444,4.253,3.934,6.238c1.488,1.986,3.246,3.733,5.275,5.24c2.026,1.509,4.335,2.417,6.923,2.729
				c2.587,0.312,5.344-0.296,8.27-1.823c2.215-1.156,4.047-2.424,5.5-3.804c1.452-1.376,2.559-2.689,3.318-3.931l-6.316-12.099
				l-9.505,4.964l-2.569-4.92l15.619-8.156L363.849,51.695z"/>
			<path fill="#343433" d="M368.308,12.498h6.976v48.383h23.282v5.611h-30.258V12.498z"/>
			<path fill="#343433" d="M404.783,12.498h32.458v5.611H411.76v17.595h24.192v5.612H411.76v19.565H438v5.611h-33.217V12.498z"/>
		</g>
	</g>
	<g>
		<g>
			<path fill="#8D8D8D" d="M1.198,17.242c0.342-0.853,0.72-1.605,1.134-2.259c0.412-0.653,0.962-1.259,1.646-1.819
				c0.685-0.559,1.555-1.005,2.61-1.338c1.055-0.333,2.31-0.5,3.763-0.5c1.797,0,3.258,0.254,4.384,0.76
				c1.127,0.507,1.988,1.187,2.587,2.039c0.599,0.854,0.999,1.786,1.198,2.799s0.299,2.119,0.299,3.317v12.432
				c0,0.959,0.071,1.878,0.214,2.758h-3.978v-3.997h-0.086c-1.196,1.492-2.438,2.571-3.72,3.237c-1.284,0.667-2.68,1-4.192,1
				c-1.227,0-2.295-0.193-3.208-0.58c-0.912-0.385-1.654-0.905-2.224-1.559c-0.571-0.652-0.983-1.365-1.241-2.139
				C0.128,30.62,0,29.819,0,28.994c0-2.638,1.012-4.65,3.037-6.035c2.024-1.386,4.819-2.079,8.383-2.079h3.635V19.36
				c0-0.64-0.036-1.225-0.106-1.759c-0.072-0.533-0.257-1.084-0.556-1.657c-0.299-0.574-0.799-1.047-1.498-1.421
				c-0.699-0.372-1.618-0.559-2.758-0.559c-1.483,0-2.651,0.354-3.506,1.059c-0.857,0.707-1.583,1.752-2.182,3.138L1.198,17.242z
				 M12.318,23.517c-2.767,0-4.883,0.427-6.351,1.279c-1.469,0.853-2.203,2.145-2.203,3.877c0,1.2,0.342,2.199,1.025,2.998
				c0.685,0.799,1.754,1.199,3.208,1.199c0.998,0,2.039-0.265,3.123-0.799c1.083-0.533,2.395-1.611,3.934-3.238v-5.316H12.318z"/>
		</g>
		<g>
			<path fill="#8D8D8D" d="M38.622,18.48v-0.039c-0.143-0.4-0.308-0.82-0.493-1.259c-0.184-0.44-0.463-0.894-0.834-1.36
				c-0.37-0.466-0.855-0.865-1.454-1.198c-0.599-0.333-1.312-0.5-2.139-0.5c-1.282,0-2.367,0.267-3.251,0.801
				c-0.884,0.532-1.575,1.246-2.075,2.137c-0.498,0.894-0.854,1.887-1.068,2.978c-0.214,1.093-0.321,2.266-0.321,3.519
				c0,1.278,0.101,2.477,0.3,3.598c0.2,1.118,0.535,2.131,1.004,3.038c0.472,0.905,1.099,1.619,1.882,2.139
				c0.785,0.519,1.746,0.778,2.887,0.778c2.765,0,4.69-1.438,5.774-4.316l3.293,1c-0.428,0.932-0.884,1.752-1.37,2.458
				c-0.485,0.707-1.062,1.333-1.732,1.878c-0.668,0.547-1.496,0.98-2.48,1.299c-0.984,0.319-2.145,0.479-3.485,0.479
				c-1.967,0-3.622-0.373-4.961-1.119c-1.34-0.746-2.374-1.725-3.1-2.938c-0.728-1.211-1.234-2.518-1.519-3.916
				c-0.285-1.4-0.428-2.845-0.428-4.338c0-1.385,0.15-2.77,0.449-4.157c0.299-1.385,0.834-2.698,1.604-3.937
				c0.77-1.24,1.868-2.245,3.293-3.019c1.425-0.772,3.194-1.159,5.303-1.159c1.996,0,3.664,0.48,5.004,1.439
				c1.34,0.959,2.438,2.546,3.293,4.758L38.622,18.48z"/>
		</g>
		<g>
			<path fill="#8D8D8D" d="M45.507,17.242c0.342-0.853,0.72-1.605,1.133-2.259c0.412-0.653,0.962-1.259,1.646-1.819
				c0.685-0.559,1.554-1.005,2.609-1.338c1.054-0.333,2.31-0.5,3.764-0.5c1.796,0,3.257,0.254,4.384,0.76
				c1.126,0.507,1.988,1.187,2.587,2.039c0.599,0.854,0.998,1.786,1.197,2.799c0.2,1.013,0.299,2.119,0.299,3.317v12.432
				c0,0.959,0.072,1.878,0.215,2.758h-3.979v-3.997H59.28c-1.198,1.492-2.438,2.571-3.721,3.237c-1.285,0.667-2.682,1-4.192,1
				c-1.226,0-2.296-0.193-3.208-0.58c-0.913-0.385-1.654-0.905-2.224-1.559c-0.57-0.652-0.983-1.365-1.241-2.139
				c-0.256-0.771-0.385-1.572-0.385-2.398c0-2.638,1.012-4.65,3.038-6.035c2.023-1.386,4.818-2.079,8.383-2.079h3.634V19.36
				c0-0.64-0.035-1.225-0.105-1.759c-0.072-0.533-0.258-1.084-0.557-1.657c-0.299-0.574-0.797-1.047-1.497-1.421
				c-0.698-0.372-1.618-0.559-2.758-0.559c-1.483,0-2.652,0.354-3.507,1.059c-0.856,0.707-1.583,1.752-2.181,3.138L45.507,17.242z
				 M56.628,23.517c-2.767,0-4.883,0.427-6.351,1.279c-1.47,0.853-2.204,2.145-2.204,3.877c0,1.2,0.343,2.199,1.027,2.998
				c0.684,0.799,1.753,1.199,3.208,1.199c0.997,0,2.038-0.265,3.122-0.799c1.082-0.533,2.395-1.611,3.933-3.238v-5.316H56.628z"/>
		</g>
		<g>
			<path fill="#8D8D8D" d="M86.909,35.429h-3.763v-3.078H83.06c-0.599,0.88-1.476,1.693-2.631,2.438
				c-1.155,0.747-2.587,1.119-4.298,1.119c-2.852,0-5.09-1.092-6.715-3.278c-1.625-2.184-2.438-5.222-2.438-9.114
				c0-2.264,0.264-4.196,0.792-5.796c0.526-1.599,1.225-2.865,2.095-3.797c0.87-0.933,1.811-1.599,2.823-1.999
				c1.011-0.399,2.046-0.6,3.101-0.6c1.369,0,2.616,0.261,3.743,0.78c1.125,0.52,2.331,1.445,3.614,2.778V4.37h3.763V35.429z
				 M83.146,17.802c-0.742-0.986-1.663-1.82-2.759-2.499c-1.098-0.68-2.217-1.02-3.357-1.02c-1.282,0-2.338,0.3-3.165,0.899
				s-1.448,1.366-1.861,2.298s-0.699,1.893-0.854,2.878c-0.158,0.986-0.236,1.959-0.236,2.918c0,1.119,0.085,2.225,0.256,3.317
				s0.478,2.125,0.92,3.098c0.442,0.973,1.076,1.759,1.903,2.359c0.827,0.599,1.853,0.898,3.08,0.898
				c1.454,0,2.723-0.379,3.806-1.138c1.084-0.759,1.84-1.565,2.268-2.418V17.802z"/>
		</g>
		<g>
			<path fill="#8D8D8D" d="M95.034,24.517c0.028,1.519,0.236,2.832,0.62,3.938c0.386,1.106,0.892,2.006,1.52,2.699
				c0.625,0.693,1.324,1.192,2.095,1.498c0.77,0.307,1.596,0.459,2.48,0.459c0.942,0,1.781-0.146,2.524-0.439
				c0.74-0.293,1.354-0.66,1.839-1.099c0.484-0.44,0.862-0.894,1.134-1.36c0.271-0.466,0.463-0.886,0.577-1.259l3.293,1.079
				c-0.826,1.865-2.031,3.311-3.613,4.338c-1.583,1.024-3.5,1.538-5.753,1.538c-2.11,0-3.878-0.386-5.304-1.16
				c-1.425-0.772-2.524-1.785-3.292-3.038c-0.77-1.25-1.305-2.571-1.604-3.956C91.25,26.37,91.1,24.982,91.1,23.597
				s0.15-2.77,0.449-4.157c0.299-1.385,0.834-2.698,1.604-3.937c0.769-1.24,1.868-2.245,3.292-3.019
				c1.426-0.772,3.194-1.159,5.304-1.159c1.738,0,3.25,0.32,4.534,0.96c1.283,0.639,2.309,1.505,3.079,2.598
				c0.77,1.093,1.34,2.312,1.712,3.658c0.369,1.346,0.555,2.751,0.555,4.217v1.758H95.034z M107.695,21.878
				c0-2.239-0.528-4.09-1.583-5.556c-1.055-1.466-2.553-2.199-4.491-2.199c-1.939,0-3.457,0.674-4.555,2.019
				c-1.099,1.346-1.775,3.258-2.032,5.736H107.695z"/>
		</g>
		<g>
			<path fill="#8D8D8D" d="M115.822,11.806h3.763v3.798c1.54-1.653,2.93-2.779,4.17-3.379c1.241-0.599,2.501-0.899,3.785-0.899
				c0.969,0,1.803,0.121,2.502,0.36s1.262,0.554,1.691,0.939c0.427,0.386,0.754,0.78,0.983,1.179c0.228,0.4,0.442,0.854,0.642,1.36
				c1.339-1.2,2.616-2.14,3.827-2.819c1.213-0.679,2.673-1.02,4.385-1.02c1.226,0,2.252,0.201,3.079,0.6s1.468,0.926,1.925,1.578
				c0.456,0.653,0.777,1.36,0.962,2.12c0.184,0.758,0.277,1.552,0.277,2.377v17.429h-3.763V19.321c0-0.56-0.028-1.081-0.085-1.56
				c-0.058-0.479-0.208-0.973-0.45-1.479c-0.242-0.506-0.626-0.925-1.154-1.259c-0.528-0.333-1.233-0.5-2.116-0.5
				c-1.085,0-2.083,0.208-2.994,0.62c-0.914,0.414-2.096,1.286-3.551,2.618v17.668h-3.763V19.321c0-0.612-0.029-1.166-0.086-1.659
				s-0.207-0.986-0.448-1.479c-0.243-0.493-0.634-0.893-1.176-1.2c-0.542-0.306-1.269-0.46-2.182-0.46
				c-1.025,0-2.01,0.294-2.951,0.881c-0.941,0.586-2.112,1.612-3.508,3.076v16.949h-3.763V11.806z"/>
		</g>
		<g>
			<path fill="#8D8D8D" d="M154.442,11.806l5.09,13.91c0.771,2.132,1.339,4.052,1.71,5.757h0.086
				c0.37-1.706,0.941-3.625,1.711-5.757L168,11.806h3.892l-9.879,26.581c-0.628,1.705-1.433,2.984-2.417,3.837
				c-0.984,0.853-2.231,1.279-3.743,1.279c-0.968,0-1.924-0.133-2.864-0.399l0.214-3.078c0.284,0.107,0.541,0.182,0.769,0.221
				c0.228,0.041,0.614,0.06,1.155,0.06c0.427,0,0.791-0.06,1.09-0.179c0.299-0.12,0.606-0.347,0.92-0.68
				c0.313-0.334,0.642-0.827,0.983-1.48c0.343-0.652,0.727-1.525,1.156-2.618l-9.025-23.543H154.442z"/>
		</g>
	</g>
</g>
</svg>
