<?xml version="1.0" encoding="utf-8"?>
<!-- Generator: Adobe Illustrator 16.0.3, SVG Export Plug-In . SVG Version: 6.00 Build 0)  -->
<!DOCTYPE svg PUBLIC "-//W3C//DTD SVG 1.1//EN" "http://www.w3.org/Graphics/SVG/1.1/DTD/svg11.dtd">
<svg version="1.1" id="Layer_1" xmlns="http://www.w3.org/2000/svg" xmlns:xlink="http://www.w3.org/1999/xlink" x="0px" y="0px"
	 width="24px" height="24px" viewBox="0 0 24 24" enable-background="new 0 0 24 24" xml:space="preserve">
<path fill="#343433" d="M7.772,12.703c0.02-0.05,0.223-0.83,0.237-0.883C7.692,11.344,7.341,9.783,7.61,8.517
	c0.292-1.859,2.261-2.772,4.121-2.772V5.741c2.327,0.001,4.07,1.296,4.072,3.527c0.002,1.747-1.051,4.055-2.848,4.055
	c0,0,0,0-0.001,0c-0.641,0-1.452-0.291-1.665-0.577c-0.245-0.329-0.306-0.735-0.176-1.169c0.317-1.016,0.723-2.231,0.771-3.042
	c0.044-0.765-0.499-1.263-1.203-1.263c-0.53,0-1.218,0.308-1.562,1.173c-0.283,0.719-0.277,1.471,0.019,2.3
	c0.115,0.324-0.511,2.436-0.712,3.125c-0.499,1.709-1.182,3.869-1.036,5.073l0.142,1.159l0.708-0.928
	c0.979-1.282,1.991-4.599,2.262-5.406c0.798,1.033,2.459,1.063,2.653,1.063c2.379,0,5.077-2.362,5-5.65
	c-0.067-2.884-2.177-5.281-5.97-5.281v0.004c-3.606,0-5.712,1.925-6.227,4.357C5.487,10.516,6.536,12.232,7.772,12.703z"/>
</svg>
