<?xml version="1.0" encoding="utf-8"?>
<!-- Generator: Adobe Illustrator 16.0.3, SVG Export Plug-In . SVG Version: 6.00 Build 0)  -->
<!DOCTYPE svg PUBLIC "-//W3C//DTD SVG 1.1//EN" "http://www.w3.org/Graphics/SVG/1.1/DTD/svg11.dtd">
<svg version="1.1" id="Layer_1" xmlns="http://www.w3.org/2000/svg" xmlns:xlink="http://www.w3.org/1999/xlink" x="0px" y="0px"
	 width="24px" height="24px" viewBox="0 0 24 24" enable-background="new 0 0 24 24" xml:space="preserve">
<g>
	<path fill="#343433" d="M21.112,7.422c-0.219-0.818-0.863-1.462-1.682-1.681c-1.482-0.397-7.432-0.397-7.432-0.397
		s-5.947,0-7.43,0.397C3.751,5.959,3.106,6.604,2.888,7.422C2.489,8.905,2.489,12,2.489,12s0,3.096,0.398,4.578
		c0.219,0.818,0.863,1.463,1.682,1.682c1.482,0.397,7.43,0.397,7.43,0.397s5.949,0,7.432-0.397c0.818-0.219,1.463-0.863,1.682-1.682
		C21.509,15.096,21.509,12,21.509,12S21.509,8.905,21.112,7.422"/>
	<polygon fill="#FFFFFF" points="10.097,14.853 15.04,12 10.097,9.147 	"/>
</g>
</svg>
